<svg width="48" height="48" viewBox="0 0 48 48" fill="none" xmlns="http://www.w3.org/2000/svg">
<rect width="48" height="48" rx="24" fill="#C6CEE0"/>
<path d="M27.5616 32.0303V31.1016C27.5616 29.4693 28.2117 27.9011 29.3455 26.7993C30.7638 25.4207 31.5449 23.5613 31.5449 21.5636C31.5449 17.5753 28.364 14.3307 24.454 14.3307C24.1871 14.3307 23.9161 14.3458 23.6487 14.3761C20.261 14.7582 17.5637 17.6714 17.3743 21.1526C17.2601 23.2519 18.0409 25.2937 19.5166 26.7539C20.6794 27.9044 21.3463 29.4887 21.3463 31.1006V32.03C21.3463 33.017 22.1332 33.8197 23.1008 33.8197H25.8068C26.7744 33.8203 27.5616 33.0173 27.5616 32.0303ZM26.2711 32.0303C26.2711 32.2913 26.0626 32.5036 25.8071 32.5036H23.1011C22.8453 32.5036 22.6372 32.291 22.6372 32.0303V31.101C22.6372 29.1353 21.8274 27.2067 20.4155 25.8094C19.2085 24.6151 18.5697 22.9442 18.6633 21.226C18.8181 18.3793 21.0224 15.9972 23.7909 15.6849C24.0116 15.6599 24.2349 15.6474 24.4546 15.6474C27.6529 15.6474 30.255 18.3013 30.255 21.564C30.255 23.198 29.6162 24.7187 28.456 25.8466C27.068 27.1955 26.2717 29.1109 26.2717 31.102L26.2711 32.0303Z" fill="#405D98"/>
<path d="M13.4216 21.9099H15.851C16.0841 21.9099 16.2727 21.6677 16.2727 21.3685C16.2727 21.0693 16.0841 20.8271 15.851 20.8271H13.4216C13.1886 20.8271 13 21.0693 13 21.3685C13 21.6677 13.1886 21.9099 13.4216 21.9099Z" fill="#405D98"/>
<path d="M37 21.3685C37 21.0693 36.7485 20.8271 36.4378 20.8271H33.1986C32.8879 20.8271 32.6364 21.0693 32.6364 21.3685C32.6364 21.6677 32.8879 21.9099 33.1986 21.9099H36.4378C36.7485 21.9099 37 21.6677 37 21.3685Z" fill="#405D98"/>
<path d="M23.9088 10.4185V12.8297C23.9088 13.061 24.1528 13.2482 24.4543 13.2482C24.7557 13.2482 24.9997 13.061 24.9997 12.8297V10.4185C24.9997 10.1872 24.7557 10 24.4543 10C24.1528 10 23.9088 10.1872 23.9088 10.4185Z" fill="#405D98"/>
<path d="M32.807 13.3527L30.6122 14.8052C30.4017 14.9443 30.4017 15.1703 30.6122 15.3093C30.7174 15.379 30.8553 15.4137 30.9932 15.4137C31.1311 15.4137 31.2691 15.379 31.3743 15.3093L33.5691 13.8568C33.7796 13.7178 33.7796 13.4917 33.5691 13.3527C33.3583 13.2134 33.0174 13.2134 32.807 13.3527Z" fill="#405D98"/>
<path d="M19.3875 26.3974C19.177 26.1885 18.8361 26.1885 18.6256 26.3974L16.4306 28.5762C16.2201 28.7847 16.2201 29.1234 16.4306 29.3324C16.5359 29.4368 16.6738 29.4889 16.8117 29.4889C16.9496 29.4889 17.0876 29.4368 17.1928 29.3324L19.3879 27.1536C19.598 26.945 19.598 26.6063 19.3875 26.3974Z" fill="#405D98"/>
<path d="M18.6253 15.3093C18.7306 15.379 18.8685 15.4137 19.0064 15.4137C19.1444 15.4137 19.2823 15.379 19.3875 15.3093C19.598 15.1703 19.598 14.9443 19.3875 14.8052L17.1925 13.3527C16.982 13.2134 16.6411 13.2134 16.4306 13.3527C16.2201 13.4917 16.2201 13.7178 16.4306 13.8568L18.6253 15.3093Z" fill="#405D98"/>
<path d="M32.8069 29.3324C32.9121 29.4368 33.0501 29.4889 33.188 29.4889C33.3259 29.4889 33.4639 29.4368 33.5691 29.3324C33.7796 29.1234 33.7796 28.7847 33.5691 28.5762L31.374 26.3974C31.1635 26.1885 30.8227 26.1885 30.6122 26.3974C30.4017 26.6063 30.4017 26.945 30.6122 27.1536L32.8069 29.3324Z" fill="#405D98"/>
<path d="M26.0908 35.4586C26.0908 35.1594 25.8599 34.9173 25.5746 34.9173H23.3344C23.0491 34.9173 22.8181 35.1594 22.8181 35.4586C22.8181 35.7578 23.0491 36 23.3344 36H25.5746C25.8599 36 26.0908 35.7578 26.0908 35.4586Z" fill="#405D98"/>
</svg>
